<?xml version="1.0" encoding="UTF-8" standalone="no"?>
<!-- Created with Inkscape (http://www.inkscape.org/) -->

<svg
   version="1.1"
   id="svg1"
   width="197.20129"
   height="88.335327"
   viewBox="0 0 197.20129 88.335326"
   xmlns="http://www.w3.org/2000/svg"
   xmlns:svg="http://www.w3.org/2000/svg">
  <defs
     id="defs1">
    <clipPath
       clipPathUnits="userSpaceOnUse"
       id="clipPath1">
      <path
         d="m 1290.3911,950.58547 h 1587.4 V 2073.1055 h -1587.4 z"
         id="path1" />
    </clipPath>
    <clipPath
       clipPathUnits="userSpaceOnUse"
       id="clipPath29779">
      <path
         d="m 1007.958,736.388 h 147.901 v 66.252 h -147.901 z"
         transform="translate(0,-2.5000001e-5)"
         id="path29779" />
    </clipPath>
    <clipPath
       clipPathUnits="userSpaceOnUse"
       id="clipPath29781">
      <path
         d="M 0,0 H 1190.55 V 841.89 H 0 Z"
         transform="translate(0,-2.5000001e-5)"
         id="path29781" />
    </clipPath>
    <clipPath
       clipPathUnits="userSpaceOnUse"
       id="clipPath29783">
      <path
         d="M 0,0 H 1190.55 V 841.89 H 0 Z"
         transform="translate(0,-2.5000001e-5)"
         id="path29783" />
    </clipPath>
    <clipPath
       clipPathUnits="userSpaceOnUse"
       id="clipPath29785">
      <path
         d="M 0,0 H 1190.55 V 841.89 H 0 Z"
         transform="translate(0,-2.5000001e-5)"
         id="path29785" />
    </clipPath>
  </defs>
  <g
     id="g1"
     clip-path="url(#clipPath1)"
     transform="translate(-1343.9439,-985.98854)">
    <path
       id="path29778"
       d="m 1149.021,748.803 c 0,2.042 0.955,2.719 2.071,2.719 1.065,0 2.152,-0.44 2.152,-1.764 v -1.296 h 2.54 v 4.564 h -1.684 l -0.208,-0.752 h -0.081 c -0.7,0.7 -1.811,0.856 -2.742,0.856 -2.181,0 -4.617,-1.272 -4.617,-4.327 v -8.007 c 0,-2.927 2.025,-4.327 4.767,-4.327 1.042,0 2.181,0.387 2.777,1.319 l 0.255,-1.14 h 1.608 v 7.128 h -3.888 v -0.729 l 1.296,-0.828 v -1.712 c 0,-1.371 -0.543,-2.436 -2.1,-2.436 -1.319,0 -2.146,0.804 -2.146,2.725 z m -8.84,-10.032 c 0.469,-1.244 0.625,-2.302 2.129,-2.279 0.515,0 1.244,0.081 1.736,0.312 v 0.961 c -0.729,-0.134 -1.117,0.723 -1.348,1.342 -0.365,1.012 -0.729,1.996 -1.088,3.008 -0.26,0.7 -0.544,1.14 -1.244,1.527 1.475,0.313 2.592,1.429 2.592,3.425 v 2.124 c 0,2.875 -2.1,3.806 -4.617,3.806 h -4.738 v -0.7 l 0.827,-0.648 v -13.578 l -0.983,-0.723 v -0.7 h 4.455 v 0.7 l -0.984,0.723 v 5.265 c 1.348,0 1.66,-0.341 2.123,-1.556 z m -1.84,12.722 c 1.586,0 2.077,-0.85 2.077,-2.302 v -2.124 c 0,-1.452 -0.573,-2.308 -2.1,-2.308 h -1.423 v 6.734 z m -7.254,-14.845 v 3.656 h -1.088 l -0.827,-2.181 h -3.859 v 0.133 c 0.411,0.128 0.515,0.336 0.515,0.723 v 5.051 h 2.123 l 0.648,-1.192 h 0.729 v 3.94 h -0.729 l -0.648,-1.267 h -2.123 v 6.034 h 3.06 l 0.671,-2.198 h 1.221 v 3.65 h -8.348 v -0.619 l 0.856,-0.648 v -13.659 l -1.012,-0.723 v -0.7 z m -14.481,10.986 c 0,-0.804 -0.26,-1.735 -1.377,-1.735 h -1.655 v 5.646 h 1.684 c 0.955,0 1.348,-0.648 1.348,-1.55 z m 0.492,-7.671 c 0,-1.296 -0.365,-1.863 -1.713,-1.863 h -2.331 v 0.127 c 0.416,0.134 0.52,0.336 0.52,0.781 v 5.67 h 1.603 c 1.429,0 1.921,-0.648 1.921,-1.967 z m -1.713,-3.315 c 2.309,0 4.252,0.596 4.252,3.315 v 2.748 c 0,1.504 -0.676,2.464 -2.024,2.771 1.116,0.208 1.533,1.088 1.533,2.152 v 2.361 c 0,2.406 -1.609,3.002 -3.784,3.002 -1.892,0 -3.216,-0.023 -5.108,0 v -0.7 l 0.856,-0.648 v -13.578 l -1.013,-0.723 v -0.7 h 5.34 z m -13.705,3.315 v 1.296 h -2.771 v -1.267 c 0,-2.517 1.967,-3.604 4.223,-3.604 2.198,0 4.403,0.96 4.403,3.575 v 1.996 c 0,4.327 -5.907,3.112 -5.907,5.884 v 1.995 c 0,1.059 0.515,1.707 1.556,1.707 1.059,0 1.655,-0.596 1.655,-1.707 v -1.22 h 2.516 v 4.408 h -1.66 l -0.179,-0.833 h -0.105 c -0.781,0.833 -1.735,0.989 -2.62,0.989 -1.892,0 -3.732,-0.885 -3.732,-3.344 v -1.995 c 0,-4.067 5.861,-2.905 5.861,-5.907 v -1.973 c 0,-1.111 -0.492,-1.915 -1.69,-1.915 -0.983,0 -1.55,0.544 -1.55,1.915 m -16.558,8.215 -0.133,2.956 h 0.342 c 0.827,-4.616 1.527,-8.99 2.25,-13.63 0.081,-0.468 0.313,-0.677 0.833,-0.677 h 2.042 l 2.465,14.487 h 0.075 v -2.361 -10.882 l -0.983,-0.723 v -0.7 h 4.483 v 0.7 l -0.983,0.723 v 13.578 l 0.879,0.648 v 0.7 h -3.552 c -0.903,0 -1.215,-0.104 -1.394,-1.006 l -1.973,-12.259 h -0.052 c -0.463,4.558 -0.932,7.538 -1.759,12.126 -0.26,1.035 -0.648,1.139 -1.764,1.139 h -3.396 v -0.7 l 0.885,-0.648 v -13.601 l -0.938,-0.648 v -0.752 h 3.605 v 0.752 l -0.932,0.648 z m -5.935,3.471 0.827,0.648 v 0.7 h -4.142 v -0.7 l 0.827,-0.648 v -13.578 l -0.984,-0.723 v -0.7 h 4.432 v 0.7 l -0.96,0.723 z m -9.326,-12.878 c 0.462,-1.244 0.619,-2.302 2.123,-2.279 0.521,0 1.244,0.081 1.735,0.312 v 0.961 c -0.723,-0.134 -1.116,0.723 -1.347,1.342 -0.365,1.012 -0.724,1.996 -1.088,3.008 -0.26,0.7 -0.544,1.14 -1.244,1.527 1.475,0.313 2.592,1.429 2.592,3.425 v 2.124 c 0,2.875 -2.1,3.806 -4.611,3.806 h -4.744 v -0.7 l 0.827,-0.648 v -13.578 l -0.983,-0.723 v -0.7 h 4.46 v 0.7 l -0.989,0.723 v 5.265 c 1.348,0 1.66,-0.341 2.129,-1.556 z m -1.84,12.722 c 1.579,0 2.071,-0.85 2.071,-2.302 v -2.124 c 0,-1.452 -0.573,-2.308 -2.1,-2.308 h -1.423 v 6.734 z m -15.262,-1.342 c 0,2.279 1.059,3.107 2.355,3.107 1.273,0 2.464,-0.573 2.464,-2.1 v -1.371 h 2.691 v 5.05 h -1.788 l -0.202,-0.96 h -0.081 c -0.776,0.856 -1.996,1.093 -3.107,1.093 -2.436,0 -5.056,-1.452 -5.056,-4.819 v -8.892 c 0,-3.24 2.181,-4.819 5.235,-4.819 1.192,0 2.465,0.468 3.113,1.527 l 0.283,-1.319 h 1.684 v 7.932 h -4.252 v -0.781 l 1.533,-0.88 v -1.973 c 0,-1.602 -0.625,-2.794 -2.413,-2.794 -1.556,0 -2.459,0.955 -2.459,3.107 z m -19.022,2.846 v -0.7 l 0.857,-0.752 v -13.474 l -1.013,-0.723 v -0.7 h 4.461 v 0.7 l -0.99,0.723 v 5.959 h 2.413 l 0.648,-1.192 h 0.752 v 3.94 h -0.752 l -0.648,-1.267 h -2.413 v 6.034 h 3.396 l 0.729,-2.459 h 1.192 v 3.911 z m -5.987,-14.226 c 0.468,-1.244 0.624,-2.302 2.129,-2.279 0.514,0 1.243,0.081 1.735,0.312 v 0.961 c -0.729,-0.134 -1.116,0.723 -1.348,1.342 -0.364,1.012 -0.723,1.996 -1.088,3.008 -0.26,0.7 -0.543,1.14 -1.243,1.527 1.475,0.313 2.591,1.429 2.591,3.425 v 2.124 c 0,2.875 -2.1,3.806 -4.616,3.806 h -4.738 v -0.7 l 0.827,-0.648 v -13.578 l -0.984,-0.723 v -0.7 h 4.455 v 0.7 l -0.983,0.723 v 5.265 c 1.348,0 1.66,-0.341 2.123,-1.556 z m -1.84,12.722 c 1.585,0 2.077,-0.85 2.077,-2.302 v -2.124 c 0,-1.452 -0.573,-2.308 -2.1,-2.308 h -1.423 v 6.734 z m -12.254,-4.582 h -1.914 v 6.37 h 1.914 c 1.065,0 1.609,-0.827 1.609,-1.811 v -2.615 c 0,-1.192 -0.469,-1.944 -1.609,-1.944 m -2.464,-8.707 v 0.128 c 0.445,0.156 0.55,0.387 0.55,0.856 v 6.427 h 1.862 c 1.609,0 2.205,-0.729 2.205,-2.227 v -3.06 c 0,-1.349 -0.596,-2.124 -1.973,-2.124 z m 7.313,5.184 c 0,1.683 -0.804,2.615 -1.996,3.083 0.931,0.388 1.446,1.372 1.446,2.384 v 2.615 c 0,2.667 -1.684,3.315 -4.09,3.315 h -5.728 v -0.723 l 0.984,-0.677 v -15.21 l -1.163,-0.775 v -0.752 h 5.93 c 3.031,0 4.617,1.088 4.617,3.68 z"
       style="fill:#222223;fill-opacity:1;fill-rule:nonzero;stroke:none"
       transform="matrix(1.3333333,0,0,-1.3333333,0,2056.1745)"
       clip-path="url(#clipPath29779)" />
    <path
       id="path29780"
       d="m 1059.553,781.0226 c 1.021,0 1.849,-0.828 1.849,-1.848 0,-1.021 -0.828,-1.849 -1.849,-1.849 -1.02,0 -1.848,0.828 -1.848,1.849 0,1.02 0.828,1.848 1.848,1.848"
       style="fill:#222223;fill-opacity:1;fill-rule:nonzero;stroke:none"
       transform="matrix(1.3333333,0,0,-1.3333333,0,2056.1745)"
       clip-path="url(#clipPath29781)" />
    <path
       id="path29782"
       d="m 1065.823,787.8828 c 2.442,0 4.421,-1.979 4.421,-4.421 0,-2.441 -1.979,-4.421 -4.421,-4.421 -2.441,0 -4.421,1.98 -4.421,4.421 0,2.442 1.98,4.421 4.421,4.421"
       style="fill:#222223;fill-opacity:1;fill-rule:nonzero;stroke:none"
       transform="matrix(1.3333333,0,0,-1.3333333,0,2056.1745)"
       clip-path="url(#clipPath29783)" />
    <path
       id="path29784"
       d="m 1083.568,784.7315 c 1.816,0.275 3.241,1.737 3.454,3.573 0.783,-0.594 1.693,-1.026 2.689,-1.236 v -7.515 c -2.003,0.385 -4.054,0.616 -6.143,0.7 z m 16.047,-8.427 v 3.747 c 1.972,0.298 3.484,1.995 3.484,4.05 0,2.265 -1.836,4.101 -4.101,4.101 -2.266,0 -4.102,-1.836 -4.102,-4.101 0,-2.055 1.513,-3.752 3.484,-4.05 v -3.173 c -1.925,0.836 -3.923,1.52 -5.976,2.059 v 8.107 c 3.141,0.601 5.517,3.359 5.517,6.674 0,3.755 -3.045,6.799 -6.799,6.799 -3.755,0 -6.799,-3.044 -6.799,-6.799 0,-0.379 0.039,-0.749 0.099,-1.112 -0.458,0.176 -0.952,0.277 -1.471,0.277 -2.266,0 -4.102,-1.837 -4.102,-4.102 0,-2.055 1.513,-3.752 3.484,-4.05 v -4.441 c -0.142,0.001 -0.282,0.012 -0.424,0.012 -2.501,0 -4.951,-0.225 -7.336,-0.654 v 9.518 c 3.141,0.6 5.516,3.358 5.516,6.674 0,3.755 -3.044,6.799 -6.798,6.799 -3.756,0 -6.8,-3.044 -6.8,-6.799 0,-3.271 2.311,-6 5.388,-6.65 v -10.125 c -9.34,-2.336 -17.51,-7.856 -23.409,-15.417 10.245,4.696 21.551,7.306 33.439,7.306 11.887,0 23.193,-2.61 33.439,-7.306 -4.217,5.404 -9.599,9.753 -15.733,12.656"
       style="fill:#222223;fill-opacity:1;fill-rule:nonzero;stroke:none"
       transform="matrix(1.3333333,0,0,-1.3333333,0,2056.1745)"
       clip-path="url(#clipPath29785)" />
  </g>
</svg>
